<?xml version="1.0" encoding="utf-8"?>
<!-- Generator: Adobe Illustrator 28.4.1, SVG Export Plug-In . SVG Version: 6.00 Build 0)  -->
<svg version="1.1" id="Layer_1" xmlns="http://www.w3.org/2000/svg" xmlns:xlink="http://www.w3.org/1999/xlink" x="0px" y="0px"
	 viewBox="0 0 300 300" style="enable-background:new 0 0 300 300;" xml:space="preserve">
<style type="text/css">
	.st0{fill:#4366B0;}
	.st1{fill:#585A5A;}
</style>
<g>
	<g>
		<g>
			<path class="st0" d="M53.78,161.56c-0.91,0-1.62-0.24-2.11-0.71c-0.49-0.47-0.74-1.19-0.74-2.14v-25.48
				c0-0.91,0.25-1.61,0.74-2.11c0.49-0.49,1.2-0.74,2.11-0.74c0.95,0,1.66,0.24,2.14,0.71c0.47,0.48,0.71,1.19,0.71,2.14v25.48
				c0,0.91-0.24,1.62-0.71,2.11C55.44,161.31,54.73,161.56,53.78,161.56z M53.72,142.06c0-2.28,0.56-4.32,1.68-6.13
				c1.12-1.8,2.63-3.24,4.53-4.3c1.9-1.06,3.99-1.6,6.27-1.6c2.28,0,3.98,0.37,5.1,1.11c1.12,0.74,1.55,1.62,1.28,2.65
				c-0.11,0.53-0.33,0.94-0.66,1.23c-0.32,0.29-0.69,0.47-1.11,0.54c-0.42,0.08-0.87,0.06-1.37-0.06c-2.43-0.49-4.62-0.53-6.55-0.11
				c-1.94,0.42-3.47,1.2-4.59,2.34c-1.12,1.14-1.68,2.58-1.68,4.33H53.72z"/>
			<path class="st0" d="M91.62,161.79c-2.77,0-5.26-0.69-7.47-2.08c-2.2-1.39-3.94-3.27-5.22-5.64c-1.27-2.37-1.91-5.06-1.91-8.07
				c0-3,0.69-5.7,2.08-8.09c1.39-2.39,3.27-4.28,5.64-5.67c2.37-1.39,5.04-2.08,8.01-2.08c2.96,0,5.62,0.69,7.98,2.08
				c2.36,1.39,4.23,3.28,5.61,5.67c1.39,2.39,2.08,5.09,2.08,8.09h-2.22c0,3-0.64,5.69-1.91,8.07c-1.27,2.38-3.01,4.26-5.22,5.64
				C96.89,161.09,94.4,161.79,91.62,161.79z M92.76,156.66c1.94,0,3.67-0.46,5.19-1.4c1.52-0.93,2.72-2.2,3.59-3.82
				c0.87-1.61,1.31-3.43,1.31-5.44c0-2.05-0.44-3.88-1.31-5.5c-0.87-1.61-2.07-2.89-3.59-3.82c-1.52-0.93-3.25-1.4-5.19-1.4
				c-1.9,0-3.62,0.47-5.16,1.4c-1.54,0.93-2.76,2.2-3.65,3.82c-0.89,1.62-1.34,3.45-1.34,5.5c0,2.01,0.45,3.83,1.34,5.44
				c0.89,1.62,2.11,2.89,3.65,3.82C89.15,156.19,90.86,156.66,92.76,156.66z M105.53,161.61c-0.84,0-1.53-0.28-2.08-0.83
				c-0.55-0.55-0.83-1.24-0.83-2.08v-8.72l1.08-6.04l4.73,2.05v12.71c0,0.84-0.28,1.53-0.83,2.08
				C107.06,161.34,106.37,161.61,105.53,161.61z"/>
			<path class="st0" d="M124.28,161.56c-0.61,0-1.17-0.18-1.68-0.54c-0.51-0.36-0.86-0.81-1.05-1.34l-8.44-25.31
				c-0.3-1.18-0.29-2.14,0.03-2.88c0.32-0.74,1.04-1.11,2.14-1.11c0.72,0,1.32,0.2,1.8,0.6c0.47,0.4,0.86,1.07,1.17,2.02l7.18,22.46
				h-2l6.78-22.91c0.19-0.65,0.51-1.17,0.97-1.57s1.08-0.6,1.88-0.6c0.76,0,1.38,0.2,1.85,0.6c0.47,0.4,0.79,0.92,0.94,1.57
				l5.53,21.55h-0.85l6.73-21.09c0.53-1.75,1.52-2.62,2.96-2.62c1.06,0,1.79,0.37,2.17,1.11c0.38,0.74,0.36,1.7-0.06,2.88
				l-8.44,25.31c-0.15,0.53-0.48,0.98-0.97,1.34c-0.49,0.36-1.06,0.54-1.71,0.54c-0.61,0-1.18-0.18-1.71-0.54
				c-0.53-0.36-0.87-0.81-1.03-1.34l-5.87-21.72h0.57l-6.16,21.72c-0.15,0.53-0.48,0.98-1,1.34
				C125.51,161.38,124.93,161.56,124.28,161.56z"/>
			<path class="st0" d="M161.51,174.89c-0.84,0-1.53-0.28-2.08-0.83s-0.83-1.24-0.83-2.08V146c0.04-3,0.74-5.7,2.11-8.09
				c1.37-2.39,3.23-4.28,5.59-5.67c2.36-1.39,5.02-2.08,7.98-2.08c3,0,5.68,0.69,8.04,2.08c2.36,1.39,4.23,3.28,5.61,5.67
				c1.39,2.39,2.08,5.09,2.08,8.09c0,3-0.64,5.69-1.91,8.07c-1.27,2.38-3.01,4.26-5.21,5.64c-2.21,1.39-4.69,2.08-7.47,2.08
				c-2.24,0-4.3-0.46-6.18-1.4c-1.88-0.93-3.49-2.19-4.82-3.79v15.39c0,0.84-0.27,1.53-0.8,2.08S162.38,174.89,161.51,174.89z
				 M174.27,156.66c1.94,0,3.67-0.46,5.19-1.4c1.52-0.93,2.73-2.2,3.62-3.82c0.89-1.61,1.34-3.43,1.34-5.44
				c0-2.05-0.45-3.88-1.34-5.5c-0.89-1.61-2.1-2.89-3.62-3.82c-1.52-0.93-3.25-1.4-5.19-1.4c-1.9,0-3.62,0.47-5.16,1.4
				c-1.54,0.93-2.75,2.2-3.62,3.82c-0.87,1.62-1.31,3.45-1.31,5.5c0,2.01,0.44,3.83,1.31,5.44c0.87,1.62,2.08,2.89,3.62,3.82
				C170.65,156.19,172.37,156.66,174.27,156.66z"/>
			<path class="st0" d="M201.58,161.61c-0.84,0-1.53-0.28-2.08-0.83s-0.83-1.24-0.83-2.08v-25.42c0-0.87,0.28-1.58,0.83-2.11
				c0.55-0.53,1.25-0.8,2.08-0.8c0.87,0,1.58,0.27,2.11,0.8c0.53,0.53,0.8,1.24,0.8,2.11v25.42c0,0.84-0.27,1.53-0.8,2.08
				C203.15,161.34,202.45,161.61,201.58,161.61z M225,161.61c-0.84,0-1.53-0.28-2.08-0.83s-0.83-1.24-0.83-2.08v-14.02
				c0-2.17-0.4-3.93-1.2-5.3c-0.8-1.37-1.87-2.38-3.22-3.05c-1.35-0.66-2.9-1-4.64-1c-1.6,0-3.04,0.32-4.33,0.97
				c-1.29,0.65-2.32,1.51-3.08,2.59c-0.76,1.08-1.14,2.33-1.14,3.73h-3.59c0-2.39,0.58-4.53,1.74-6.41
				c1.16-1.88,2.74-3.37,4.76-4.47c2.01-1.1,4.28-1.65,6.78-1.65c2.62,0,4.97,0.56,7.04,1.68c2.07,1.12,3.71,2.76,4.9,4.93
				c1.2,2.17,1.8,4.83,1.8,7.98v14.02c0,0.84-0.28,1.53-0.83,2.08C226.53,161.34,225.84,161.61,225,161.61z"/>
			<path class="st0" d="M258.06,162.13c-3.08,0-5.96-0.58-8.64-1.74c-2.68-1.16-5.02-2.77-7.01-4.84c-2-2.07-3.55-4.49-4.67-7.27
				c-1.12-2.77-1.68-5.78-1.68-9.01c0-3.19,0.56-6.17,1.68-8.92c1.12-2.75,2.68-5.17,4.67-7.24c1.99-2.07,4.32-3.7,6.98-4.87
				c2.66-1.18,5.55-1.77,8.66-1.77c2.93,0,5.44,0.38,7.55,1.14c2.11,0.76,4.23,2.01,6.36,3.76c0.3,0.23,0.54,0.47,0.71,0.71
				c0.17,0.25,0.29,0.49,0.34,0.74c0.06,0.25,0.09,0.54,0.09,0.88c0,0.72-0.26,1.33-0.77,1.82c-0.51,0.49-1.14,0.76-1.88,0.8
				c-0.74,0.04-1.44-0.21-2.08-0.74c-1.41-1.22-2.86-2.15-4.36-2.79c-1.5-0.65-3.49-0.97-5.96-0.97c-2.24,0-4.35,0.46-6.33,1.37
				c-1.98,0.91-3.71,2.17-5.22,3.76c-1.5,1.6-2.67,3.45-3.51,5.56s-1.25,4.36-1.25,6.75c0,2.43,0.42,4.7,1.25,6.81s2,3.96,3.51,5.56
				c1.5,1.6,3.24,2.84,5.22,3.73c1.98,0.89,4.08,1.34,6.33,1.34c1.94,0,3.77-0.33,5.5-1c1.73-0.66,3.39-1.59,4.99-2.76
				c0.68-0.49,1.36-0.71,2.02-0.66s1.23,0.32,1.68,0.8c0.46,0.48,0.68,1.13,0.68,1.97c0,0.38-0.07,0.75-0.2,1.11
				c-0.13,0.36-0.37,0.69-0.71,1c-2.01,1.67-4.2,2.92-6.56,3.73C263.12,161.72,260.65,162.13,258.06,162.13z M272.94,155.06
				l-5.7-1.14v-10.2h-7.87c-0.84,0-1.54-0.25-2.11-0.74c-0.57-0.49-0.85-1.12-0.85-1.88c0-0.76,0.29-1.39,0.85-1.88
				c0.57-0.49,1.27-0.74,2.11-0.74h10.66c0.87,0,1.58,0.28,2.11,0.83c0.53,0.55,0.8,1.26,0.8,2.14V155.06z"/>
		</g>
	</g>
</g>
<rect x="16.28" y="141.56" class="st1" width="25.19" height="20"/>
<rect x="16.28" y="121.55" transform="matrix(-0.9358 -0.3525 0.3525 -0.9358 9.5138 264.8422)" width="25.19" height="20"/>
</svg>
